<?xml version="1.0" encoding="UTF-8"?>
<!DOCTYPE svg PUBLIC "-//W3C//DTD SVG 1.1//EN" "http://www.w3.org/Graphics/SVG/1.1/DTD/svg11.dtd">
<svg xmlns="http://www.w3.org/2000/svg" version="1.1" width="512px" height="512px" style="shape-rendering:geometricPrecision; text-rendering:geometricPrecision; image-rendering:optimizeQuality; fill-rule:evenodd; clip-rule:evenodd" xmlns:xlink="http://www.w3.org/1999/xlink">
<g><path style="opacity:1" fill="#fefeff" d="M -0.5,-0.5 C 170.167,-0.5 340.833,-0.5 511.5,-0.5C 511.5,170.167 511.5,340.833 511.5,511.5C 436.5,511.5 361.5,511.5 286.5,511.5C 286.5,452.167 286.5,392.833 286.5,333.5C 309.833,333.5 333.167,333.5 356.5,333.5C 360.32,307.404 364.653,281.404 369.5,255.5C 341.833,255.5 314.167,255.5 286.5,255.5C 286.094,239.124 286.594,222.79 288,206.5C 292.255,187.246 304.088,175.746 323.5,172C 340.479,170.206 357.479,170.04 374.5,171.5C 374.5,147.833 374.5,124.167 374.5,100.5C 344.024,94.1584 313.357,92.9917 282.5,97C 241.507,103.555 214.34,126.389 201,165.5C 197.59,177.293 195.257,189.293 194,201.5C 193.5,219.497 193.333,237.497 193.5,255.5C 175.833,255.5 158.167,255.5 140.5,255.5C 140.5,281.5 140.5,307.5 140.5,333.5C 158.167,333.5 175.833,333.5 193.5,333.5C 193.5,392.833 193.5,452.167 193.5,511.5C 128.833,511.5 64.1667,511.5 -0.5,511.5C -0.5,340.833 -0.5,170.167 -0.5,-0.5 Z"/></g>
<g><path style="opacity:1" fill="#0a66ff" d="M 286.5,511.5 C 255.5,511.5 224.5,511.5 193.5,511.5C 193.5,452.167 193.5,392.833 193.5,333.5C 175.833,333.5 158.167,333.5 140.5,333.5C 140.5,307.5 140.5,281.5 140.5,255.5C 158.167,255.5 175.833,255.5 193.5,255.5C 193.333,237.497 193.5,219.497 194,201.5C 195.257,189.293 197.59,177.293 201,165.5C 214.34,126.389 241.507,103.555 282.5,97C 313.357,92.9917 344.024,94.1584 374.5,100.5C 374.5,124.167 374.5,147.833 374.5,171.5C 357.479,170.04 340.479,170.206 323.5,172C 304.088,175.746 292.255,187.246 288,206.5C 286.594,222.79 286.094,239.124 286.5,255.5C 314.167,255.5 341.833,255.5 369.5,255.5C 364.653,281.404 360.32,307.404 356.5,333.5C 333.167,333.5 309.833,333.5 286.5,333.5C 286.5,392.833 286.5,452.167 286.5,511.5 Z"/></g>
</svg>
